HIERARCHY
ROOT Hips
{
	OFFSET 0.000000 0.000000 0.000000
	CHANNELS 6 Xposition Yposition Zposition Xrotation Yrotation Zrotation
	JOINT LeftUpLeg_virtual
	{
		OFFSET 0.000000 0.000000 0.000000
		CHANNELS 3 Xrotation Yrotation Zrotation
		JOINT LeftUpLeg
		{
			OFFSET 15.427100 -6.655098 0.678600
			CHANNELS 3 Xrotation Yrotation Zrotation
			JOINT LeftLeg
			{
				OFFSET 4.081073 -39.591068 13.024000
				CHANNELS 3 Xrotation Yrotation Zrotation
				JOINT LeftFoot
				{
					OFFSET -4.081074 -37.707932 -15.979700
					CHANNELS 3 Xrotation Yrotation Zrotation
					JOINT LeftToeBase
					{
						OFFSET 5.346399 -15.068900 20.645000
						CHANNELS 3 Xrotation Yrotation Zrotation
						JOINT LeftToe_End
						{
							OFFSET 2.754700 0.931300 11.300900
							CHANNELS 3 Xrotation Yrotation Zrotation
							End Site
							{
								OFFSET 0 0 0
							}
						}
					}
				}
			}
		}
	}
	JOINT RightUpLeg_virtual
	{
		OFFSET 0.000000 0.000000 0.000000
		CHANNELS 3 Xrotation Yrotation Zrotation
		JOINT RightUpLeg
		{
			OFFSET -15.569500 -6.655098 0.678600
			CHANNELS 3 Xrotation Yrotation Zrotation
			JOINT RightLeg
			{
				OFFSET -4.081825 -39.591045 13.023800
				CHANNELS 3 Xrotation Yrotation Zrotation
				JOINT RightFoot
				{
					OFFSET 4.081824 -37.707954 -15.979600
					CHANNELS 3 Xrotation Yrotation Zrotation
					JOINT RightToeBase
					{
						OFFSET -5.346400 -15.068900 20.645000
						CHANNELS 3 Xrotation Yrotation Zrotation
						JOINT RightToe_End
						{
							OFFSET -2.754700 0.931300 11.300900
							CHANNELS 3 Xrotation Yrotation Zrotation
							End Site
							{
								OFFSET 0 0 0
							}
						}
					}
				}
			}
		}
	}
	JOINT Spine_virtual
	{
		OFFSET 0.000000 0.000000 0.000000
		CHANNELS 3 Xrotation Yrotation Zrotation
		JOINT Spine
		{
			OFFSET -0.279200 12.230698 -2.892100
			CHANNELS 3 Xrotation Yrotation Zrotation
			JOINT Spine1
			{
				OFFSET -0.232667 10.192268 -1.242267
				CHANNELS 3 Xrotation Yrotation Zrotation
				JOINT Spine1_split
				{
					OFFSET -0.232667 10.192268 -1.242267
					CHANNELS 3 Xrotation Yrotation Zrotation
					JOINT Spine2
					{
						OFFSET -0.232667 10.192268 -1.242267
						CHANNELS 3 Xrotation Yrotation Zrotation
						JOINT Neck_virtual
						{
							OFFSET 0.000000 0.000000 0.000000
							CHANNELS 3 Xrotation Yrotation Zrotation
							JOINT Neck
							{
								OFFSET -0.418800 17.814194 8.416900
								CHANNELS 3 Xrotation Yrotation Zrotation
								JOINT Head
								{
									OFFSET 0.000000 7.031097 3.806800
									CHANNELS 3 Xrotation Yrotation Zrotation
									JOINT HeadTop_End
									{
										OFFSET 0.000000 24.646606 12.978600
										CHANNELS 3 Xrotation Yrotation Zrotation
										End Site
										{
											OFFSET 0 0 0
										}
									}
								}
							}
						}
						JOINT LeftShoulder_virtual
						{
							OFFSET 0.000000 0.000000 0.000000
							CHANNELS 3 Xrotation Yrotation Zrotation
							JOINT LeftShoulder
							{
								OFFSET 8.476499 7.247704 -3.868750
								CHANNELS 3 Xrotation Yrotation Zrotation
								JOINT LeftShoulder_split
								{
									OFFSET 8.476499 7.247704 -3.868750
									CHANNELS 3 Xrotation Yrotation Zrotation
									JOINT LeftArm
									{
										OFFSET 9.308998 -2.777710 0.208600
										CHANNELS 3 Xrotation Yrotation Zrotation
										JOINT LeftForeArm
										{
											OFFSET 29.972298 0.000000 0.000000
											CHANNELS 3 Xrotation Yrotation Zrotation
											JOINT LeftHand
											{
												OFFSET 26.026505 0.000000 0.000000
												CHANNELS 3 Xrotation Yrotation Zrotation
												End Site
												{
													OFFSET 0 0 0
												}
											}
										}
									}
								}
							}
						}
						JOINT RightShoulder_virtual
						{
							OFFSET 0.000000 0.000000 0.000000
							CHANNELS 3 Xrotation Yrotation Zrotation
							JOINT RightShoulder
							{
								OFFSET -7.570500 7.247704 -3.868750
								CHANNELS 3 Xrotation Yrotation Zrotation
								JOINT RightShoulder_split
								{
									OFFSET -7.570500 7.247704 -3.868750
									CHANNELS 3 Xrotation Yrotation Zrotation
									JOINT RightArm
									{
										OFFSET -9.308998 -2.777710 0.208500
										CHANNELS 3 Xrotation Yrotation Zrotation
										JOINT RightForeArm
										{
											OFFSET -29.972300 0.000000 0.000000
											CHANNELS 3 Xrotation Yrotation Zrotation
											JOINT RightHand
											{
												OFFSET -26.026505 0.000000 0.000000
												CHANNELS 3 Xrotation Yrotation Zrotation
												End Site
												{
													OFFSET 0 0 0
												}
											}
										}
									}
								}
							}
						}
					}
				}
			}
		}
	}
}
MOTION
Frames: 4
Frame Time: 0.03333333
6.807911 93.954834 -9.234003 0.000000 0.000000 0.000000 -0.188109 8.513233 2.197601 -6.505193 9.164385 0.085750 17.605345 3.041900 7.600052 -9.472317 0.417145 -9.839366 -2.187665 -3.804090 3.108789 0.000000 0.000000 0.000000 0.082560 7.474719 2.120280 4.071021 -9.193640 -0.267540 14.641861 1.544532 -0.979746 -20.995660 -26.604509 8.049991 2.020205 4.149530 -9.368828 0.000000 0.000000 0.000000 0.372272 9.041570 1.475527 2.862218 -1.352536 1.231944 -0.293881 0.166835 1.770932 0.136553 -0.404268 0.013088 0.000000 0.000000 0.000000 1.820560 2.937719 1.762118 2.047978 6.673294 0.449368 -17.758444 -41.924521 -36.498277 0.000000 0.000000 0.000000 0.714313 1.016664 1.114337 1.615523 -27.005631 -5.324254 -0.423978 0.241704 -4.319863 13.453125 8.333979 -81.651920 -1.994053 -20.762873 -1.643658 0.000000 0.000000 0.000000 0.011029 1.260506 2.323047 -4.939815 -4.777320 8.552930 -7.157294 -2.589574 1.382222 20.309482 20.560504 64.225403 -11.092336 17.884581 9.670615 0.000000 0.000000 0.000000 
6.735637 93.944695 -9.134970 0.000000 0.000000 0.000000 -0.183092 8.583327 2.190265 -6.461201 9.135241 0.096280 17.574425 3.094821 7.617633 -9.463276 0.452228 -9.672807 -2.195890 -3.805237 3.134622 0.000000 0.000000 0.000000 0.059600 7.524855 2.106494 4.092066 -9.226896 -0.170751 14.718931 1.482394 -1.012409 -21.037410 -26.623480 8.028445 1.776876 4.199810 -9.431258 0.000000 0.000000 0.000000 0.369867 9.084660 1.510422 2.839505 -1.326933 1.187416 -0.333781 0.154911 1.749795 0.145956 -0.436456 -0.002414 0.000000 0.000000 0.000000 1.904934 2.953003 1.766602 2.107437 6.686939 0.504964 -17.985830 -41.752489 -36.577541 0.000000 0.000000 0.000000 0.753660 1.008880 1.141978 1.656727 -27.111043 -5.319663 -0.552825 0.249103 -4.296081 13.647724 8.349923 -81.681939 -2.158866 -21.141679 -1.682535 0.000000 0.000000 0.000000 -0.016987 1.243621 2.388980 -4.835757 -4.965915 8.523137 -7.087785 -2.491152 1.424198 20.470490 20.178670 64.233128 -11.049323 17.680889 9.691665 0.000000 0.000000 0.000000 
6.645120 93.941315 -9.035990 0.000000 0.000000 0.000000 -0.159658 8.680833 2.158217 -6.453208 9.007377 0.086953 17.512858 3.233269 7.688117 -9.435130 0.596821 -9.608004 -2.284910 -3.793665 3.144994 0.000000 0.000000 0.000000 0.076502 7.607865 2.065418 4.131561 -9.226557 -0.019749 14.717389 1.378954 -1.051245 -20.988681 -26.622390 8.137313 1.547582 4.219145 -9.359834 0.000000 0.000000 0.000000 0.371479 9.168668 1.521600 2.807643 -1.295076 1.100814 -0.374208 0.173908 1.779221 0.145224 -0.447109 -0.000074 0.000000 0.000000 0.000000 2.006784 3.004490 1.798322 2.161252 6.600314 0.675978 -18.514725 -41.472024 -36.920191 0.000000 0.000000 0.000000 0.776540 1.033173 1.209677 1.652313 -27.339589 -5.358324 -0.730237 0.198516 -4.284082 13.830827 8.481389 -81.776899 -2.343207 -21.189084 -1.754274 0.000000 0.000000 0.000000 -0.038217 1.266272 2.492535 -4.741786 -5.291302 8.459458 -7.068973 -2.321275 1.563387 20.641028 19.753213 64.149956 -11.010040 17.589375 9.820051 0.000000 0.000000 0.000000 
6.559237 93.947403 -8.946218 0.000000 0.000000 0.000000 -0.116878 8.781830 2.091951 -6.475491 8.790085 0.045099 17.442930 3.451391 7.787201 -9.438063 0.825451 -9.639050 -2.376730 -3.768599 3.136692 0.000000 0.000000 0.000000 0.128955 7.697486 1.996816 4.169042 -9.193626 0.160515 14.629109 1.233778 -1.120403 -20.958856 -26.592307 8.303373 1.478257 4.201586 -9.174239 0.000000 0.000000 0.000000 0.393398 9.249510 1.495892 2.767008 -1.268757 1.001505 -0.405546 0.225475 1.848475 0.132397 -0.451444 0.011139 0.000000 0.000000 0.000000 2.119465 3.089259 1.842966 2.205702 6.436587 0.941477 -19.311385 -41.113115 -37.467515 0.000000 0.000000 0.000000 0.770126 1.088906 1.303846 1.614623 -27.667875 -5.400406 -1.015062 0.087086 -4.359310 13.904000 8.700731 -81.866798 -2.525230 -20.827047 -1.846709 0.000000 0.000000 0.000000 -0.069501 1.322609 2.609489 -4.683461 -5.705583 8.341321 -7.056510 -2.189875 1.792240 20.777388 19.449013 64.059142 -10.974667 17.715462 9.987859 0.000000 0.000000 0.000000 
